<?xml version="1.0"?>
<!DOCTYPE svg PUBLIC "-//W3C//DTD SVG 1.0//EN" "http://www.w3.org/TR/2001/REC-SVG-20010904/DTD/svg10.dtd">
<svg width="500" height="700">
  <rect style="fill:pink;" width="500" height="700" x="0" y="0"/>
  <g transform="translate(250,350)" >
    <path d="M -200 -200 c 000 -200 200 -200 200 000 c 000 -200 200 -200 200 000 c 000 000 000 200 -200 400 c 000 000 -200 -200 -200 -400 z"/>
    <animateTransform attributeName="transform" attributeType="XML" type="scale" values="0.8;1;0.8" additive="sum" dur="10s" repeatCount="indefinite"/>
    <animateColor attributeName="fill" values="red;pink;pink;pink;red;red;pink;pink;pink;red" calcMode="linear" dur="10s" begin="0s" repeatDur="indefinite"/>
  </g>
  <path d="M 382.54454,230.49554 L 335.37146,230.49554 C 336.56540,233.49399 338.68358,235.91134 341.72597,237.74758 C 344.76838,239.58383 348.88390,240.50195 354.07256,240.50195 C 358.32854,240.50195 363.98828,239.57939 371.05179,237.73437 C 373.96762,236.98032 375.98596,236.60335 377.10680,236.60335 C 378.63917,236.60335 379.92855,237.14449 380.97494,238.22679 C 382.02134,239.30908 382.54454,240.67045 382.54454,242.31112 C 382.54454,243.80428 381.98412,245.07338 380.86327,246.11843 C 379.36745,247.49777 375.72334,248.81258 369.93094,250.06273 C 364.13854,251.31277 358.56949,251.93785 353.22381,251.93785 C 344.03096,251.93785 336.67810,249.34387 331.16523,244.15591 C 325.65236,238.96796 322.89593,232.58627 322.89593,225.01107 C 322.89593,216.94995 325.87640,210.39066 331.83733,205.33331 C 337.79827,200.27595 344.66583,197.74728 352.44002,197.74728 C 357.11158,197.74728 361.40004,198.56826 365.30541,200.21033 C 369.21078,201.85229 372.11645,203.62496 374.02244,205.52824 C 376.71356,208.28975 378.93765,211.70438 380.69473,215.77225 C 381.89003,218.60956 382.48769,221.89359 382.48769,225.62434 L 382.54454,230.49554 z M 369.80911,219.05964 C 368.05474,215.74853 365.75889,213.27465 362.92158,211.63810 C 360.08426,210.00145 356.70547,209.18318 352.78521,209.18318 C 348.90286,209.18318 345.54302,210.00145 342.70570,211.63810 C 339.86839,213.27465 337.55359,215.74853 335.76132,219.05964 L 369.80911,219.05964 z M 284.88456,236.56880 L 297.45145,210.74262 C 294.58842,210.74262 292.78600,210.41708 292.04418,209.76591 C 290.43330,208.32289 289.62786,206.74254 289.62786,205.02467 C 289.62786,203.30690 290.21603,201.92441 291.39238,200.87731 C 292.56873,199.83032 294.58842,199.30672 297.45145,199.30672 L 312.10370,199.30672 C 314.95320,199.30672 316.96612,199.83032 318.14247,200.87731 C 319.31882,201.92441 319.90700,203.30690 319.90700,205.02467 C 319.90700,206.74254 319.31882,208.12492 318.14247,209.17202 C 316.96612,210.21912 314.95320,210.74262 312.10370,210.74262 L 310.15440,210.74262 L 290.99237,250.11850 L 278.77675,250.11850 L 259.61471,210.74262 L 257.92531,210.74262 C 255.07581,210.74262 253.06289,210.21912 251.88654,209.17202 C 250.71019,208.12492 250.12202,206.74254 250.12202,205.02467 C 250.12202,203.30690 250.71019,201.92441 251.88654,200.87731 C 253.06289,199.83032 255.07581,199.30672 257.92531,199.30672 L 272.31563,199.30672 C 275.18002,199.30672 277.20038,199.83032 278.37673,200.87731 C 279.55308,201.92441 280.14126,203.30690 280.14126,205.02467 C 280.14126,206.74254 279.35680,208.29928 277.78788,209.69487 C 277.00410,210.39337 275.18002,210.74262 272.31563,210.74262 L 284.88456,236.56880 z M 245.83356,225.62640 C 245.83356,230.02987 244.61152,234.29364 242.16746,238.41760 C 239.72338,242.54167 236.08502,245.82603 231.25238,248.27078 C 226.41974,250.71553 221.37254,251.93785 216.11078,251.93785 C 210.88692,251.93785 205.88676,250.73415 201.11030,248.32655 C 196.33383,245.91905 192.69547,242.64412 190.19522,238.50186 C 187.69497,234.35959 186.44486,230.03052 186.44486,225.51464 C 186.44486,220.92436 187.71359,216.41790 190.25107,211.99548 C 192.78854,207.57295 196.43604,204.09269 201.19355,201.55448 C 205.95107,199.01638 210.92347,197.74728 216.11078,197.74728 C 221.33599,197.74728 226.36458,199.04410 231.19654,201.63776 C 236.02851,204.23141 239.67600,207.72088 242.13903,212.10615 C 244.60205,216.49143 245.83356,220.99811 245.83356,225.62640 z M 234.39766,225.68520 C 234.39766,221.98023 233.07037,218.57502 230.41580,215.46967 C 226.78794,211.27868 222.01960,209.18318 216.11078,209.18318 C 210.91264,209.18318 206.57477,210.84820 203.09716,214.17826 C 199.61955,217.50832 197.88075,221.36230 197.88075,225.74011 C 197.88075,229.33278 199.63850,232.69121 203.15401,235.81550 C 206.66953,238.93980 210.98845,240.50195 216.11078,240.50195 C 221.27101,240.50195 225.60888,238.93980 229.12439,235.81550 C 232.63990,232.69121 234.39766,229.31448 234.39766,225.68520 z M 142.26070,193.58877 L 142.26070,238.68260 L 167.08180,238.68260 L 167.08180,227.76651 C 167.08180,224.92108 167.60534,222.91015 168.65240,221.73386 C 169.69948,220.55746 171.08193,219.96931 172.79975,219.96931 C 174.51757,219.96931 175.90001,220.55746 176.94709,221.73386 C 177.99416,222.91015 178.51770,224.92108 178.51770,227.76651 L 178.51770,250.11850 L 124.19717,250.11850 C 121.35174,250.11850 119.34084,249.59500 118.16449,248.54790 C 116.98814,247.50080 116.39997,246.11843 116.39997,244.40055 C 116.39997,242.68278 116.98814,241.30029 118.16449,240.25319 C 119.34084,239.20620 121.35174,238.68260 124.19717,238.68260 L 130.82480,238.68260 L 130.82480,193.58877 L 124.19717,193.58877 C 121.35174,193.58877 119.34084,193.06527 118.16449,192.01817 C 116.98814,190.97107 116.39997,189.58869 116.39997,187.87082 C 116.39997,186.15305 116.98814,184.77056 118.16449,183.72346 C 119.34084,182.67647 121.35174,182.15287 124.19717,182.15287 L 149.01828,182.15287 C 151.86371,182.15287 153.87460,182.67647 155.05095,183.72346 C 156.22730,184.77056 156.81548,186.15305 156.81548,187.87082 C 156.81548,189.58869 156.22730,190.97107 155.05095,192.01817 C 153.87460,193.06527 151.86371,193.58877 149.01828,193.58877 L 142.26070,193.58877 z ">
    <animateColor attributeName="fill" values="pink;red;red;red;pink;pink;red;red;red;pink" calcMode="linear" dur="10s" begin="0s" repeatDur="indefinite"/>
  </path>
</svg>
