<?xml version="1.0" encoding="UTF-8"?>
<!DOCTYPE svg PUBLIC "-//W3C//DTD SVG 1.0//EN" "http://www.w3.org/TR/2001/REC-SVG-20010904/DTD/svg10.dtd">
<svg xmlns="http://www.w3.org/2000/svg" xmlns:xlink="http://www.w3.org/1999/xlink" version="1.0" x="0" y="0">
  <g transform="translate(501,310)" >
    <path d="M 000 -180
      c 000 000 000 180 056 009 c 000 000 -56 171 049 025 c 000 000 -105 146 041 041 c 000 000 -146 105 025 049 c 000 000 -171 56 009 056 c 000 000 -180 000 -09 056 c 000 000 -171 -56 -25 049 c 000 000 -146 -105 -41 041 c 000 000 -105 -146 -49 025 c 000 000 -56 -171 -56 009 c 000 000 000 -180 -56 -09 c 000 000 056 -171 -49 -25 c 000 000 105 -146 -41 -41 c 000 000 146 -105 -25 -49 c 000 000 171 -56 -09 -56 c 000 000 180 000 009 -56 c 000 000 171 056 025 -49 c 000 000 146 105 041 -41 c 000 000 105 146 049 -25 c 000 000 056 171 056 -09
      z" style="fill:none;stroke:#ff0000;stroke-width:6;stroke-opacity:0.3;stroke-linejoin:round;">
      <animateTransform attributeName="transform" attributeType="XML" type="scale" values="0.5;1.7;0.5" additive="sum" dur="4s" repeatCount="indefinite"/>
      <animateTransform attributeName="transform" attributeType="XML" type="rotate" from="0" to="360" additive="sum" dur="12s" repeatCount="indefinite"/>
    </path>
    <path d="M 000 -180
      c 000 000 000 180 056 009 c 000 000 -56 171 049 025 c 000 000 -105 146 041 041 c 000 000 -146 105 025 049 c 000 000 -171 56 009 056 c 000 000 -180 000 -09 056 c 000 000 -171 -56 -25 049 c 000 000 -146 -105 -41 041 c 000 000 -105 -146 -49 025 c 000 000 -56 -171 -56 009 c 000 000 000 -180 -56 -09 c 000 000 056 -171 -49 -25 c 000 000 105 -146 -41 -41 c 000 000 146 -105 -25 -49 c 000 000 171 -56 -09 -56 c 000 000 180 000 009 -56 c 000 000 171 056 025 -49 c 000 000 146 105 041 -41 c 000 000 105 146 049 -25 c 000 000 056 171 056 -09
      z" style="fill:none;stroke:#00ff00;stroke-width:6;stroke-opacity:0.3;stroke-linejoin:round;">
      <animateTransform attributeName="transform" attributeType="XML" type="scale" values="0.5;1.7;0.5" additive="sum" dur="8s" repeatCount="indefinite"/>
      <animateTransform attributeName="transform" attributeType="XML" type="rotate" from="0" to="360" additive="sum" dur="12s" repeatCount="indefinite"/>
    </path>
    <path d="M 000 -180
      c 000 000 000 180 056 009 c 000 000 -56 171 049 025 c 000 000 -105 146 041 041 c 000 000 -146 105 025 049 c 000 000 -171 56 009 056 c 000 000 -180 000 -09 056 c 000 000 -171 -56 -25 049 c 000 000 -146 -105 -41 041 c 000 000 -105 -146 -49 025 c 000 000 -56 -171 -56 009 c 000 000 000 -180 -56 -09 c 000 000 056 -171 -49 -25 c 000 000 105 -146 -41 -41 c 000 000 146 -105 -25 -49 c 000 000 171 -56 -09 -56 c 000 000 180 000 009 -56 c 000 000 171 056 025 -49 c 000 000 146 105 041 -41 c 000 000 105 146 049 -25 c 000 000 056 171 056 -09
      z" style="fill:none;stroke:#0000ff;stroke-width:6;stroke-opacity:0.3;stroke-linejoin:round;">
      <animateTransform attributeName="transform" attributeType="XML" type="scale" values="0.5;1.7;0.5" additive="sum" dur="16s" repeatCount="indefinite"/>
      <animateTransform attributeName="transform" attributeType="XML" type="rotate" from="0" to="360" additive="sum" dur="12s" repeatCount="indefinite"/>
    </path>
    <path d="M 000 -180
      c 000 000 000 180 056 009 c 000 000 -56 171 049 025 c 000 000 -105 146 041 041 c 000 000 -146 105 025 049 c 000 000 -171 56 009 056 c 000 000 -180 000 -09 056 c 000 000 -171 -56 -25 049 c 000 000 -146 -105 -41 041 c 000 000 -105 -146 -49 025 c 000 000 -56 -171 -56 009 c 000 000 000 -180 -56 -09 c 000 000 056 -171 -49 -25 c 000 000 105 -146 -41 -41 c 000 000 146 -105 -25 -49 c 000 000 171 -56 -09 -56 c 000 000 180 000 009 -56 c 000 000 171 056 025 -49 c 000 000 146 105 041 -41 c 000 000 105 146 049 -25 c 000 000 056 171 056 -09
      z" style="fill:none;stroke:#ffff00;stroke-width:6;stroke-opacity:0.3;stroke-linejoin:round;">
      <animateTransform attributeName="transform" attributeType="XML" type="scale" values="0.5;1.7;0.5" additive="sum" dur="32s" repeatCount="indefinite"/>
      <animateTransform attributeName="transform" attributeType="XML" type="rotate" from="0" to="360" additive="sum" dur="12s" repeatCount="indefinite"/>
    </path>
    <path d="M 000 -180
      c 000 000 000 180 056 009 c 000 000 -56 171 049 025 c 000 000 -105 146 041 041 c 000 000 -146 105 025 049 c 000 000 -171 56 009 056 c 000 000 -180 000 -09 056 c 000 000 -171 -56 -25 049 c 000 000 -146 -105 -41 041 c 000 000 -105 -146 -49 025 c 000 000 -56 -171 -56 009 c 000 000 000 -180 -56 -09 c 000 000 056 -171 -49 -25 c 000 000 105 -146 -41 -41 c 000 000 146 -105 -25 -49 c 000 000 171 -56 -09 -56 c 000 000 180 000 009 -56 c 000 000 171 056 025 -49 c 000 000 146 105 041 -41 c 000 000 105 146 049 -25 c 000 000 056 171 056 -09
      z" style="fill:none;stroke:#00ffff;stroke-width:6;stroke-opacity:0.3;stroke-linejoin:round;">
      <animateTransform attributeName="transform" attributeType="XML" type="scale" values="0.5;1.7;0.5" additive="sum" dur="64s" repeatCount="indefinite"/>
      <animateTransform attributeName="transform" attributeType="XML" type="rotate" from="0" to="360" additive="sum" dur="12s" repeatCount="indefinite"/>
    </path>
  </g>
</svg>


