<?xml version="1.0" encoding="UTF-8"?>
<!DOCTYPE svg PUBLIC "-//W3C//DTD SVG 1.0//EN" "http://www.w3.org/TR/2001/REC-SVG-20010904/DTD/svg10.dtd">
<svg xmlns="http://www.w3.org/2000/svg" xmlns:xlink="http://www.w3.org/1999/xlink" version="1.0" x="0" y="0" width="800" height="600">
  <path d="M 400 020 C 400 020 400 200 456 029 C 456 029 400 200 505 054 C 505 054 400 200 546 095 C 546 095 400 200 571 144 C 571 144 400 200 580 200 C 580 200 400 200 571 256 C 571 256 400 200 546 305 C 546 305 400 200 505 346 C 505 346 400 200 456 371 C 456 371 400 200 400 380 C 400 380 400 200 344 371 C 344 371 400 200 295 346 C 295 346 400 200 254 305 C 254 305 400 200 229 256 C 229 256 400 200 220 200 C 220 200 400 200 229 144 C 229 144 400 200 254 095 C 254 095 400 200 295 054 C 295 054 400 200 344 029 C 344 029 400 200 400 020 z"
    style="fill:none;stroke:#0000ff;stroke-width:6;stroke-opacity:1;stroke-linejoin:round;">
    <animateTransform attributeName="transform" type="rotate" values="360 400 200 ; 0 400 200 " begin="0s" dur="20s" repeatCount="indefinite"/>
  </path>
  <path d="M 400 020 C 400 020 400 200 456 029 C 456 029 400 200 505 054 C 505 054 400 200 546 095 C 546 095 400 200 571 144 C 571 144 400 200 580 200 C 580 200 400 200 571 256 C 571 256 400 200 546 305 C 546 305 400 200 505 346 C 505 346 400 200 456 371 C 456 371 400 200 400 380 C 400 380 400 200 344 371 C 344 371 400 200 295 346 C 295 346 400 200 254 305 C 254 305 400 200 229 256 C 229 256 400 200 220 200 C 220 200 400 200 229 144 C 229 144 400 200 254 095 C 254 095 400 200 295 054 C 295 054 400 200 344 029 C 344 029 400 200 400 020 z"
    style="fill:none;stroke:#00ff00;stroke-width:6;stroke-opacity:1;stroke-linejoin:round;">
    <animateTransform attributeName="transform" type="rotate" values="360 400 200 ; 0 400 200 " begin="0s" dur="40s" repeatCount="indefinite"/>
  </path>
  <path d="M 400 020 C 400 020 400 200 456 029 C 456 029 400 200 505 054 C 505 054 400 200 546 095 C 546 095 400 200 571 144 C 571 144 400 200 580 200 C 580 200 400 200 571 256 C 571 256 400 200 546 305 C 546 305 400 200 505 346 C 505 346 400 200 456 371 C 456 371 400 200 400 380 C 400 380 400 200 344 371 C 344 371 400 200 295 346 C 295 346 400 200 254 305 C 254 305 400 200 229 256 C 229 256 400 200 220 200 C 220 200 400 200 229 144 C 229 144 400 200 254 095 C 254 095 400 200 295 054 C 295 054 400 200 344 029 C 344 029 400 200 400 020 z"
    style="fill:none;stroke:#ff0000;stroke-width:6;stroke-opacity:1;stroke-linejoin:round;">
    <animateTransform attributeName="transform" type="rotate" values="360 400 200 ; 0 400 200 " begin="0s" dur="80s" repeatCount="indefinite"/>
  </path>
  <path d="M 400 020 C 400 020 400 200 456 029 C 456 029 400 200 505 054 C 505 054 400 200 546 095 C 546 095 400 200 571 144 C 571 144 400 200 580 200 C 580 200 400 200 571 256 C 571 256 400 200 546 305 C 546 305 400 200 505 346 C 505 346 400 200 456 371 C 456 371 400 200 400 380 C 400 380 400 200 344 371 C 344 371 400 200 295 346 C 295 346 400 200 254 305 C 254 305 400 200 229 256 C 229 256 400 200 220 200 C 220 200 400 200 229 144 C 229 144 400 200 254 095 C 254 095 400 200 295 054 C 295 054 400 200 344 029 C 344 029 400 200 400 020 z"
    style="fill:none;stroke:#0000ff;stroke-width:6;stroke-opacity:0.5;stroke-linejoin:round;">
    <animateTransform attributeName="transform" type="rotate" values="0 400 200 ; 360 400 200 " begin="0s" dur="20s" repeatCount="indefinite"/>
  </path>
  <path d="M 400 020 C 400 020 400 200 456 029 C 456 029 400 200 505 054 C 505 054 400 200 546 095 C 546 095 400 200 571 144 C 571 144 400 200 580 200 C 580 200 400 200 571 256 C 571 256 400 200 546 305 C 546 305 400 200 505 346 C 505 346 400 200 456 371 C 456 371 400 200 400 380 C 400 380 400 200 344 371 C 344 371 400 200 295 346 C 295 346 400 200 254 305 C 254 305 400 200 229 256 C 229 256 400 200 220 200 C 220 200 400 200 229 144 C 229 144 400 200 254 095 C 254 095 400 200 295 054 C 295 054 400 200 344 029 C 344 029 400 200 400 020 z"
    style="fill:none;stroke:#00ff00;stroke-width:6;stroke-opacity:0.5;stroke-linejoin:round;">
    <animateTransform attributeName="transform" type="rotate" values="0 400 200 ; 360 400 200 " begin="0s" dur="40s" repeatCount="indefinite"/>
  </path>
  <path d="M 400 020 C 400 020 400 200 456 029 C 456 029 400 200 505 054 C 505 054 400 200 546 095 C 546 095 400 200 571 144 C 571 144 400 200 580 200 C 580 200 400 200 571 256 C 571 256 400 200 546 305 C 546 305 400 200 505 346 C 505 346 400 200 456 371 C 456 371 400 200 400 380 C 400 380 400 200 344 371 C 344 371 400 200 295 346 C 295 346 400 200 254 305 C 254 305 400 200 229 256 C 229 256 400 200 220 200 C 220 200 400 200 229 144 C 229 144 400 200 254 095 C 254 095 400 200 295 054 C 295 054 400 200 344 029 C 344 029 400 200 400 020 z"
    style="fill:none;stroke:#ff0000;stroke-width:6;stroke-opacity:0.5;stroke-linejoin:round;">
    <animateTransform attributeName="transform" type="rotate" values="0 400 200 ; 360 400 200 " begin="0s" dur="80s" repeatCount="indefinite"/>
  </path>
</svg>
